<svg xmlns="http://www.w3.org/2000/svg" xmlns:xlink="http://www.w3.org/1999/xlink">
	<symbol id="monochrome" viewBox="0 0 133 140" fill="none">
		<g stroke="currentColor" stroke-linecap="round" stroke-linejoin="round" stroke-width="8">
			<path d="M100.109 69.173c17.025-13.337 26.625-26.064 23.035-32.283-5.086-8.809-34.715-1.225-66.177 16.94C25.505 71.994 4.123 93.86 9.21 102.67c2.741 4.747 12.61 4.733 26.051.869"></path>
			<path d="M87.724 78.505c-11.84 7.894-21.534 11.409-21.05 11.84 27.843 14.45 51.883 20.265 56.469 12.322 4.701-8.142-13.211-27.441-40.796-44.66M35.364 36.042c-13.495-3.894-23.406-3.92-26.154.84-3.618 6.267 6.157 19.14 23.426 32.589"></path>
			<path d="M80.33 27.68C76.952 13.21 71.866 4 66.177 4 56.005 4 47.76 33.45 47.76 69.78c0 36.329 8.246 65.78 18.418 65.78 5.605 0 10.626-8.941 14.004-23.048"></path>
		</g>
	</symbol>

	<symbol id="light" viewBox="0 0 133 140" fill="none">
		<g stroke="#225FEB" stroke-linecap="round" stroke-linejoin="round" stroke-width="8">
			<path d="M100.109 69.173c17.025-13.337 26.625-26.064 23.035-32.283-5.086-8.809-34.715-1.225-66.177 16.94C25.505 71.994 4.123 93.86 9.21 102.67c2.741 4.747 12.61 4.733 26.051.869"></path>
			<path d="M87.724 78.505c-11.84 7.894-21.534 11.409-21.05 11.84 27.843 14.45 51.883 20.265 56.469 12.322 4.701-8.142-13.211-27.441-40.796-44.66M35.364 36.042c-13.495-3.894-23.406-3.92-26.154.84-3.618 6.267 6.157 19.14 23.426 32.589"></path>
			<path d="M80.33 27.68C76.952 13.21 71.866 4 66.177 4 56.005 4 47.76 33.45 47.76 69.78c0 36.329 8.246 65.78 18.418 65.78 5.605 0 10.626-8.941 14.004-23.048"></path>
		</g>
	</symbol>

	<symbol id="dark" viewBox="0 0 133 140" fill="none">
		<g stroke="#81A7FF" stroke-linecap="round" stroke-linejoin="round" stroke-width="8">
			<path d="M100.109 69.173c17.025-13.337 26.625-26.064 23.035-32.283-5.086-8.809-34.715-1.225-66.177 16.94C25.505 71.994 4.123 93.86 9.21 102.67c2.741 4.747 12.61 4.733 26.051.869"></path>
			<path d="M87.724 78.505c-11.84 7.894-21.534 11.409-21.05 11.84 27.843 14.45 51.883 20.265 56.469 12.322 4.701-8.142-13.211-27.441-40.796-44.66M35.364 36.042c-13.495-3.894-23.406-3.92-26.154.84-3.618 6.267 6.157 19.14 23.426 32.589"></path>
			<path d="M80.33 27.68C76.952 13.21 71.866 4 66.177 4 56.005 4 47.76 33.45 47.76 69.78c0 36.329 8.246 65.78 18.418 65.78 5.605 0 10.626-8.941 14.004-23.048"></path>
		</g>
	</symbol>
</svg>
